<svg xmlns="http://www.w3.org/2000/svg" xmlns:xlink="http://www.w3.org/1999/xlink" viewBox="0 0 720 720" width="720" height="720">
<rect width="720" height="720" fill="#1a1a1a"/>
<rect x="0" y="0" width="90" height="90" fill="#f0d9b5"/>
<rect x="0" y="90" width="90" height="90" fill="#b58863"/>
<rect x="0" y="180" width="90" height="90" fill="#f0d9b5"/>
<rect x="0" y="270" width="90" height="90" fill="#b58863"/>
<rect x="0" y="360" width="90" height="90" fill="#f0d9b5"/>
<rect x="0" y="450" width="90" height="90" fill="#b58863"/>
<rect x="0" y="540" width="90" height="90" fill="#f0d9b5"/>
<rect x="0" y="630" width="90" height="90" fill="#b58863"/>
<rect x="90" y="0" width="90" height="90" fill="#b58863"/>
<rect x="90" y="90" width="90" height="90" fill="#f0d9b5"/>
<rect x="90" y="180" width="90" height="90" fill="#b58863"/>
<rect x="90" y="270" width="90" height="90" fill="#f0d9b5"/>
<rect x="90" y="360" width="90" height="90" fill="#b58863"/>
<rect x="90" y="450" width="90" height="90" fill="#f0d9b5"/>
<rect x="90" y="540" width="90" height="90" fill="#b58863"/>
<rect x="90" y="630" width="90" height="90" fill="#f0d9b5"/>
<rect x="180" y="0" width="90" height="90" fill="#f0d9b5"/>
<rect x="180" y="90" width="90" height="90" fill="#b58863"/>
<rect x="180" y="180" width="90" height="90" fill="#f0d9b5"/>
<rect x="180" y="270" width="90" height="90" fill="#b58863"/>
<rect x="180" y="360" width="90" height="90" fill="#f0d9b5"/>
<rect x="180" y="450" width="90" height="90" fill="#b58863"/>
<rect x="180" y="540" width="90" height="90" fill="#f0d9b5"/>
<rect x="180" y="630" width="90" height="90" fill="#b58863"/>
<rect x="270" y="0" width="90" height="90" fill="#b58863"/>
<rect x="270" y="90" width="90" height="90" fill="#f0d9b5"/>
<rect x="270" y="180" width="90" height="90" fill="#b58863"/>
<rect x="270" y="270" width="90" height="90" fill="#f0d9b5"/>
<rect x="270" y="360" width="90" height="90" fill="#b58863"/>
<rect x="270" y="450" width="90" height="90" fill="#f0d9b5"/>
<rect x="270" y="540" width="90" height="90" fill="#b58863"/>
<rect x="270" y="630" width="90" height="90" fill="#f0d9b5"/>
<rect x="360" y="0" width="90" height="90" fill="#f0d9b5"/>
<rect x="360" y="90" width="90" height="90" fill="#b58863"/>
<rect x="360" y="180" width="90" height="90" fill="#f0d9b5"/>
<rect x="360" y="270" width="90" height="90" fill="#b58863"/>
<rect x="360" y="360" width="90" height="90" fill="#f0d9b5"/>
<rect x="360" y="450" width="90" height="90" fill="#b58863"/>
<rect x="360" y="540" width="90" height="90" fill="#f0d9b5"/>
<rect x="360" y="630" width="90" height="90" fill="#b58863"/>
<rect x="450" y="0" width="90" height="90" fill="#b58863"/>
<rect x="450" y="90" width="90" height="90" fill="#f0d9b5"/>
<rect x="450" y="180" width="90" height="90" fill="#b58863"/>
<rect x="450" y="270" width="90" height="90" fill="#f0d9b5"/>
<rect x="450" y="360" width="90" height="90" fill="#b58863"/>
<rect x="450" y="450" width="90" height="90" fill="#f0d9b5"/>
<rect x="450" y="540" width="90" height="90" fill="#b58863"/>
<rect x="450" y="630" width="90" height="90" fill="#f0d9b5"/>
<rect x="540" y="0" width="90" height="90" fill="#f0d9b5"/>
<rect x="540" y="90" width="90" height="90" fill="#b58863"/>
<rect x="540" y="180" width="90" height="90" fill="#f0d9b5"/>
<rect x="540" y="270" width="90" height="90" fill="#b58863"/>
<rect x="540" y="360" width="90" height="90" fill="#f0d9b5"/>
<rect x="540" y="450" width="90" height="90" fill="#b58863"/>
<rect x="540" y="540" width="90" height="90" fill="#f0d9b5"/>
<rect x="540" y="630" width="90" height="90" fill="#b58863"/>
<rect x="630" y="0" width="90" height="90" fill="#b58863"/>
<rect x="630" y="90" width="90" height="90" fill="#f0d9b5"/>
<rect x="630" y="180" width="90" height="90" fill="#b58863"/>
<rect x="630" y="270" width="90" height="90" fill="#f0d9b5"/>
<rect x="630" y="360" width="90" height="90" fill="#b58863"/>
<rect x="630" y="450" width="90" height="90" fill="#f0d9b5"/>
<rect x="630" y="540" width="90" height="90" fill="#b58863"/>
<rect x="630" y="630" width="90" height="90" fill="#f0d9b5"/>
<text x="82.8" y="714.6" text-anchor="end" font-family="Inter, system-ui, -apple-system, sans-serif" font-size="15" font-weight="600" fill="#f0d9b5">h</text>
<text x="172.8" y="714.6" text-anchor="end" font-family="Inter, system-ui, -apple-system, sans-serif" font-size="15" font-weight="600" fill="#b58863">g</text>
<text x="262.8" y="714.6" text-anchor="end" font-family="Inter, system-ui, -apple-system, sans-serif" font-size="15" font-weight="600" fill="#f0d9b5">f</text>
<text x="352.8" y="714.6" text-anchor="end" font-family="Inter, system-ui, -apple-system, sans-serif" font-size="15" font-weight="600" fill="#b58863">e</text>
<text x="442.8" y="714.6" text-anchor="end" font-family="Inter, system-ui, -apple-system, sans-serif" font-size="15" font-weight="600" fill="#f0d9b5">d</text>
<text x="532.8" y="714.6" text-anchor="end" font-family="Inter, system-ui, -apple-system, sans-serif" font-size="15" font-weight="600" fill="#b58863">c</text>
<text x="622.8" y="714.6" text-anchor="end" font-family="Inter, system-ui, -apple-system, sans-serif" font-size="15" font-weight="600" fill="#f0d9b5">b</text>
<text x="712.8" y="714.6" text-anchor="end" font-family="Inter, system-ui, -apple-system, sans-serif" font-size="15" font-weight="600" fill="#b58863">a</text>
<text x="714.6" y="18.6" text-anchor="end" font-family="Inter, system-ui, -apple-system, sans-serif" font-size="15" font-weight="600" fill="#f0d9b5">1</text>
<text x="714.6" y="108.6" text-anchor="end" font-family="Inter, system-ui, -apple-system, sans-serif" font-size="15" font-weight="600" fill="#b58863">2</text>
<text x="714.6" y="198.6" text-anchor="end" font-family="Inter, system-ui, -apple-system, sans-serif" font-size="15" font-weight="600" fill="#f0d9b5">3</text>
<text x="714.6" y="288.6" text-anchor="end" font-family="Inter, system-ui, -apple-system, sans-serif" font-size="15" font-weight="600" fill="#b58863">4</text>
<text x="714.6" y="378.6" text-anchor="end" font-family="Inter, system-ui, -apple-system, sans-serif" font-size="15" font-weight="600" fill="#f0d9b5">5</text>
<text x="714.6" y="468.6" text-anchor="end" font-family="Inter, system-ui, -apple-system, sans-serif" font-size="15" font-weight="600" fill="#b58863">6</text>
<text x="714.6" y="558.6" text-anchor="end" font-family="Inter, system-ui, -apple-system, sans-serif" font-size="15" font-weight="600" fill="#f0d9b5">7</text>
<text x="714.6" y="648.6" text-anchor="end" font-family="Inter, system-ui, -apple-system, sans-serif" font-size="15" font-weight="600" fill="#b58863">8</text>
<g transform="translate(541.35,541.35) scale(1.94)">

<defs>
  <linearGradient id="g_bR0" x1="0" y1="0.05" x2="0" y2="1">
    <stop offset="0" stop-color="#3d3a35"/>
    <stop offset="1" stop-color="#0e0c0a"/>
  </linearGradient></defs>
<ellipse cx="22.5" cy="41.5" rx="13.5" ry="1.4" fill="rgba(0,0,0,0.28)"/>
<g>
<g style="opacity:1; fill:url(#g_bR0); fill-opacity:1; fill-rule:evenodd; stroke:#050402; stroke-width:1.3; stroke-linecap:round;stroke-linejoin:round;stroke-miterlimit:4; stroke-dasharray:none; stroke-opacity:1;" transform="translate(0,0.3)">
    <path
      d="M 9,39 L 36,39 L 36,36 L 9,36 L 9,39 z "
      style="stroke-linecap:butt;" />
    <path
      d="M 12.5,32 L 14,29.5 L 31,29.5 L 32.5,32 L 12.5,32 z "
      style="stroke-linecap:butt;" />
    <path
      d="M 12,36 L 12,32 L 33,32 L 33,36 L 12,36 z "
      style="stroke-linecap:butt;" />
    <path
      d="M 14,29.5 L 14,16.5 L 31,16.5 L 31,29.5 L 14,29.5 z "
      style="stroke-linecap:butt;stroke-linejoin:miter;" />
    <path
      d="M 14,16.5 L 11,14 L 34,14 L 31,16.5 L 14,16.5 z "
      style="stroke-linecap:butt;" />
    <path
      d="M 11,14 L 11,9 L 15,9 L 15,11 L 20,11 L 20,9 L 25,9 L 25,11 L 30,11 L 30,9 L 34,9 L 34,14 L 11,14 z "
      style="stroke-linecap:butt;" />
    <path
      d="M 12,35.5 L 33,35.5 L 33,35.5"
      style="fill:none; stroke:#dfdacb; stroke-width:1; stroke-linejoin:miter;" />
    <path
      d="M 13,31.5 L 32,31.5"
      style="fill:none; stroke:#dfdacb; stroke-width:1; stroke-linejoin:miter;" />
    <path
      d="M 14,29.5 L 31,29.5"
      style="fill:none; stroke:#dfdacb; stroke-width:1; stroke-linejoin:miter;" />
    <path
      d="M 14,16.5 L 31,16.5"
      style="fill:none; stroke:#dfdacb; stroke-width:1; stroke-linejoin:miter;" />
    <path
      d="M 11,14 L 34,14"
      style="fill:none; stroke:#dfdacb; stroke-width:1; stroke-linejoin:miter;" />
  </g>
</g>

</g>
<g transform="translate(1.3500000000000014,541.35) scale(1.94)">

<defs>
  <linearGradient id="g_wP1" x1="0" y1="0.05" x2="0" y2="1">
    <stop offset="0" stop-color="#fbfaf6"/>
    <stop offset="1" stop-color="#dfdacb"/>
  </linearGradient></defs>
<ellipse cx="22.5" cy="41.5" rx="13.5" ry="1.4" fill="rgba(0,0,0,0.28)"/>
<g>
<path d="m 22.5,9 c -2.21,0 -4,1.79 -4,4 0,0.89 0.29,1.71 0.78,2.38 C 17.33,16.5 16,18.59 16,21 c 0,2.03 0.94,3.84 2.41,5.03 C 15.41,27.09 11,31.58 11,39.5 H 34 C 34,31.58 29.59,27.09 26.59,26.03 28.06,24.84 29,23.03 29,21 29,18.59 27.67,16.5 25.72,15.38 26.21,14.71 26.5,13.89 26.5,13 c 0,-2.21 -1.79,-4 -4,-4 z" style="opacity:1; fill:url(#g_wP1); fill-opacity:1; fill-rule:nonzero; stroke:#1f1c18; stroke-width:1.3; stroke-linecap:round; stroke-linejoin:miter; stroke-miterlimit:4; stroke-dasharray:none; stroke-opacity:1;"/>
</g>

</g>
<g transform="translate(631.35,451.35) scale(1.94)">

<defs>
  <linearGradient id="g_wP2" x1="0" y1="0.05" x2="0" y2="1">
    <stop offset="0" stop-color="#fbfaf6"/>
    <stop offset="1" stop-color="#dfdacb"/>
  </linearGradient></defs>
<ellipse cx="22.5" cy="41.5" rx="13.5" ry="1.4" fill="rgba(0,0,0,0.28)"/>
<g>
<path d="m 22.5,9 c -2.21,0 -4,1.79 -4,4 0,0.89 0.29,1.71 0.78,2.38 C 17.33,16.5 16,18.59 16,21 c 0,2.03 0.94,3.84 2.41,5.03 C 15.41,27.09 11,31.58 11,39.5 H 34 C 34,31.58 29.59,27.09 26.59,26.03 28.06,24.84 29,23.03 29,21 29,18.59 27.67,16.5 25.72,15.38 26.21,14.71 26.5,13.89 26.5,13 c 0,-2.21 -1.79,-4 -4,-4 z" style="opacity:1; fill:url(#g_wP2); fill-opacity:1; fill-rule:nonzero; stroke:#1f1c18; stroke-width:1.3; stroke-linecap:round; stroke-linejoin:miter; stroke-miterlimit:4; stroke-dasharray:none; stroke-opacity:1;"/>
</g>

</g>
<g transform="translate(631.35,361.35) scale(1.94)">

<defs>
  <linearGradient id="g_wK3" x1="0" y1="0.05" x2="0" y2="1">
    <stop offset="0" stop-color="#fbfaf6"/>
    <stop offset="1" stop-color="#dfdacb"/>
  </linearGradient></defs>
<ellipse cx="22.5" cy="41.5" rx="13.5" ry="1.4" fill="rgba(0,0,0,0.28)"/>
<g>
<g fill="none" fill-rule="evenodd" stroke="#000" stroke-linecap="round" stroke-linejoin="round" stroke-width="1.3">
    <path stroke-linejoin="miter" d="M22.5 11.63V6M20 8h5"/>
    <path fill="url(#g_wK3)" stroke-linecap="butt" stroke-linejoin="miter" d="M22.5 25s4.5-7.5 3-10.5c0 0-1-2.5-3-2.5s-3 2.5-3 2.5c-1.5 3 3 10.5 3 10.5"/>
    <path fill="url(#g_wK3)" d="M12.5 37c5.5 3.5 14.5 3.5 20 0v-7s9-4.5 6-10.5c-4-6.5-13.5-3.5-16 4V27v-3.5c-2.5-7.5-12-10.5-16-4-3 6 6 10.5 6 10.5v7"/>
    <path d="M12.5 30c5.5-3 14.5-3 20 0m-20 3.5c5.5-3 14.5-3 20 0m-20 3.5c5.5-3 14.5-3 20 0"/>
  </g>
</g>

</g>
<g transform="translate(91.35,361.35) scale(1.94)">

<defs>
  <linearGradient id="g_bK4" x1="0" y1="0.05" x2="0" y2="1">
    <stop offset="0" stop-color="#3d3a35"/>
    <stop offset="1" stop-color="#0e0c0a"/>
  </linearGradient></defs>
<ellipse cx="22.5" cy="41.5" rx="13.5" ry="1.4" fill="rgba(0,0,0,0.28)"/>
<g>
<g style="fill:none; fill-opacity:1; fill-rule:evenodd; stroke:#050402; stroke-width:1.3; stroke-linecap:round;stroke-linejoin:round;stroke-miterlimit:4; stroke-dasharray:none; stroke-opacity:1;">
    <path d="M 22.5,11.63 L 22.5,6" style="fill:none; stroke:#050402; stroke-linejoin:miter;" id="path6570_bK4"/>
    <path d="M 22.5,25 C 22.5,25 27,17.5 25.5,14.5 C 25.5,14.5 24.5,12 22.5,12 C 20.5,12 19.5,14.5 19.5,14.5 C 18,17.5 22.5,25 22.5,25" style="fill:url(#g_bK4);fill-opacity:1; stroke-linecap:butt; stroke-linejoin:miter;"/>
    <path d="M 12.5,37 C 18,40.5 27,40.5 32.5,37 L 32.5,30 C 32.5,30 41.5,25.5 38.5,19.5 C 34.5,13 25,16 22.5,23.5 L 22.5,27 L 22.5,23.5 C 20,16 10.5,13 6.5,19.5 C 3.5,25.5 12.5,30 12.5,30 L 12.5,37" style="fill:url(#g_bK4); stroke:#050402;"/>
    <path d="M 20,8 L 25,8" style="fill:none; stroke:#050402; stroke-linejoin:miter;"/>
    <path d="M 32,29.5 C 32,29.5 40.5,25.5 38.03,19.85 C 34.15,14 25,18 22.5,24.5 L 22.5,26.6 L 22.5,24.5 C 20,18 10.85,14 6.97,19.85 C 4.5,25.5 13,29.5 13,29.5" style="fill:none; stroke:#dfdacb;"/>
    <path d="M 12.5,30 C 18,27 27,27 32.5,30 M 12.5,33.5 C 18,30.5 27,30.5 32.5,33.5 M 12.5,37 C 18,34 27,34 32.5,37" style="fill:none; stroke:#dfdacb;"/>
  </g>
</g>

</g>
<g transform="translate(451.35,271.35) scale(1.94)">

<defs>
  <linearGradient id="g_wP5" x1="0" y1="0.05" x2="0" y2="1">
    <stop offset="0" stop-color="#fbfaf6"/>
    <stop offset="1" stop-color="#dfdacb"/>
  </linearGradient></defs>
<ellipse cx="22.5" cy="41.5" rx="13.5" ry="1.4" fill="rgba(0,0,0,0.28)"/>
<g>
<path d="m 22.5,9 c -2.21,0 -4,1.79 -4,4 0,0.89 0.29,1.71 0.78,2.38 C 17.33,16.5 16,18.59 16,21 c 0,2.03 0.94,3.84 2.41,5.03 C 15.41,27.09 11,31.58 11,39.5 H 34 C 34,31.58 29.59,27.09 26.59,26.03 28.06,24.84 29,23.03 29,21 29,18.59 27.67,16.5 25.72,15.38 26.21,14.71 26.5,13.89 26.5,13 c 0,-2.21 -1.79,-4 -4,-4 z" style="opacity:1; fill:url(#g_wP5); fill-opacity:1; fill-rule:nonzero; stroke:#1f1c18; stroke-width:1.3; stroke-linecap:round; stroke-linejoin:miter; stroke-miterlimit:4; stroke-dasharray:none; stroke-opacity:1;"/>
</g>

</g>
<g transform="translate(361.35,271.35) scale(1.94)">

<defs>
  <linearGradient id="g_bN6" x1="0" y1="0.05" x2="0" y2="1">
    <stop offset="0" stop-color="#3d3a35"/>
    <stop offset="1" stop-color="#0e0c0a"/>
  </linearGradient></defs>
<ellipse cx="22.5" cy="41.5" rx="13.5" ry="1.4" fill="rgba(0,0,0,0.28)"/>
<g>
<g style="opacity:1; fill:none; fill-opacity:1; fill-rule:evenodd; stroke:#050402; stroke-width:1.3; stroke-linecap:round;stroke-linejoin:round;stroke-miterlimit:4; stroke-dasharray:none; stroke-opacity:1;" transform="translate(0,0.3)">
    <path
      d="M 22,10 C 32.5,11 38.5,18 38,39 L 15,39 C 15,30 25,32.5 23,18"
      style="fill:url(#g_bN6); stroke:#050402;" />
    <path
      d="M 24,18 C 24.38,20.91 18.45,25.37 16,27 C 13,29 13.18,31.34 11,31 C 9.958,30.06 12.41,27.96 11,28 C 10,28 11.19,29.23 10,30 C 9,30 5.997,31 6,26 C 6,24 12,14 12,14 C 12,14 13.89,12.1 14,10.5 C 13.27,9.506 13.5,8.5 13.5,7.5 C 14.5,6.5 16.5,10 16.5,10 L 18.5,10 C 18.5,10 19.28,8.008 21,7 C 22,7 22,10 22,10"
      style="fill:url(#g_bN6); stroke:#050402;" />
    <path
      d="M 9.5 25.5 A 0.5 0.5 0 1 1 8.5,25.5 A 0.5 0.5 0 1 1 9.5 25.5 z"
      style="fill:#dfdacb; stroke:#dfdacb;" />
    <path
      d="M 15 15.5 A 0.5 1.5 0 1 1  14,15.5 A 0.5 1.5 0 1 1  15 15.5 z"
      transform="matrix(0.866,0.5,-0.5,0.866,9.693,-5.173)"
      style="fill:#dfdacb; stroke:#dfdacb;" />
    <path
      d="M 24.55,10.4 L 24.1,11.85 L 24.6,12 C 27.75,13 30.25,14.49 32.5,18.75 C 34.75,23.01 35.75,29.06 35.25,39 L 35.2,39.5 L 37.45,39.5 L 37.5,39 C 38,28.94 36.62,22.15 34.25,17.66 C 31.88,13.17 28.46,11.02 25.06,10.5 L 24.55,10.4 z "
      style="fill:#dfdacb; stroke:none;" />
  </g>
</g>

</g>
<g transform="translate(451.35,181.35) scale(1.94)">

<defs>
  <linearGradient id="g_bP7" x1="0" y1="0.05" x2="0" y2="1">
    <stop offset="0" stop-color="#3d3a35"/>
    <stop offset="1" stop-color="#0e0c0a"/>
  </linearGradient></defs>
<ellipse cx="22.5" cy="41.5" rx="13.5" ry="1.4" fill="rgba(0,0,0,0.28)"/>
<g>
<path d="m 22.5,9 c -2.21,0 -4,1.79 -4,4 0,0.89 0.29,1.71 0.78,2.38 C 17.33,16.5 16,18.59 16,21 c 0,2.03 0.94,3.84 2.41,5.03 C 15.41,27.09 11,31.58 11,39.5 H 34 C 34,31.58 29.59,27.09 26.59,26.03 28.06,24.84 29,23.03 29,21 29,18.59 27.67,16.5 25.72,15.38 26.21,14.71 26.5,13.89 26.5,13 c 0,-2.21 -1.79,-4 -4,-4 z" style="opacity:1; fill:url(#g_bP7); fill-opacity:1; fill-rule:nonzero; stroke:#050402; stroke-width:1.3; stroke-linecap:round; stroke-linejoin:miter; stroke-miterlimit:4; stroke-dasharray:none; stroke-opacity:1;"/>
</g>

</g>
<g transform="translate(361.35,181.35) scale(1.94)">

<defs>
  <linearGradient id="g_wB8" x1="0" y1="0.05" x2="0" y2="1">
    <stop offset="0" stop-color="#fbfaf6"/>
    <stop offset="1" stop-color="#dfdacb"/>
  </linearGradient></defs>
<ellipse cx="22.5" cy="41.5" rx="13.5" ry="1.4" fill="rgba(0,0,0,0.28)"/>
<g>
<g style="opacity:1; fill:none; fill-rule:evenodd; fill-opacity:1; stroke:#1f1c18; stroke-width:1.3; stroke-linecap:round; stroke-linejoin:round; stroke-miterlimit:4; stroke-dasharray:none; stroke-opacity:1;" transform="translate(0,0.6)">
    <g style="fill:url(#g_wB8); stroke:#1f1c18; stroke-linecap:butt;">
      <path d="M 9,36 C 12.39,35.03 19.11,36.43 22.5,34 C 25.89,36.43 32.61,35.03 36,36 C 36,36 37.65,36.54 39,38 C 38.32,38.97 37.35,38.99 36,38.5 C 32.61,37.53 25.89,38.96 22.5,37.5 C 19.11,38.96 12.39,37.53 9,38.5 C 7.65,38.99 6.68,38.97 6,38 C 7.35,36.54 9,36 9,36 z"/>
      <path d="M 15,32 C 17.5,34.5 27.5,34.5 30,32 C 30.5,30.5 30,30 30,30 C 30,27.5 27.5,26 27.5,26 C 33,24.5 33.5,14.5 22.5,10.5 C 11.5,14.5 12,24.5 17.5,26 C 17.5,26 15,27.5 15,30 C 15,30 14.5,30.5 15,32 z"/>
      <path d="M 25 8 A 2.5 2.5 0 1 1  20,8 A 2.5 2.5 0 1 1  25 8 z"/>
    </g>
    <path d="M 17.5,26 L 27.5,26 M 15,30 L 30,30 M 22.5,15.5 L 22.5,20.5 M 20,18 L 25,18" style="fill:none; stroke:#1f1c18; stroke-linejoin:miter;"/>
  </g>
</g>

</g>
<g transform="translate(1.3500000000000014,181.35) scale(1.94)">

<defs>
  <linearGradient id="g_bP9" x1="0" y1="0.05" x2="0" y2="1">
    <stop offset="0" stop-color="#3d3a35"/>
    <stop offset="1" stop-color="#0e0c0a"/>
  </linearGradient></defs>
<ellipse cx="22.5" cy="41.5" rx="13.5" ry="1.4" fill="rgba(0,0,0,0.28)"/>
<g>
<path d="m 22.5,9 c -2.21,0 -4,1.79 -4,4 0,0.89 0.29,1.71 0.78,2.38 C 17.33,16.5 16,18.59 16,21 c 0,2.03 0.94,3.84 2.41,5.03 C 15.41,27.09 11,31.58 11,39.5 H 34 C 34,31.58 29.59,27.09 26.59,26.03 28.06,24.84 29,23.03 29,21 29,18.59 27.67,16.5 25.72,15.38 26.21,14.71 26.5,13.89 26.5,13 c 0,-2.21 -1.79,-4 -4,-4 z" style="opacity:1; fill:url(#g_bP9); fill-opacity:1; fill-rule:nonzero; stroke:#050402; stroke-width:1.3; stroke-linecap:round; stroke-linejoin:miter; stroke-miterlimit:4; stroke-dasharray:none; stroke-opacity:1;"/>
</g>

</g>
<g transform="translate(541.35,91.35) scale(1.94)">

<defs>
  <linearGradient id="g_bP10" x1="0" y1="0.05" x2="0" y2="1">
    <stop offset="0" stop-color="#3d3a35"/>
    <stop offset="1" stop-color="#0e0c0a"/>
  </linearGradient></defs>
<ellipse cx="22.5" cy="41.5" rx="13.5" ry="1.4" fill="rgba(0,0,0,0.28)"/>
<g>
<path d="m 22.5,9 c -2.21,0 -4,1.79 -4,4 0,0.89 0.29,1.71 0.78,2.38 C 17.33,16.5 16,18.59 16,21 c 0,2.03 0.94,3.84 2.41,5.03 C 15.41,27.09 11,31.58 11,39.5 H 34 C 34,31.58 29.59,27.09 26.59,26.03 28.06,24.84 29,23.03 29,21 29,18.59 27.67,16.5 25.72,15.38 26.21,14.71 26.5,13.89 26.5,13 c 0,-2.21 -1.79,-4 -4,-4 z" style="opacity:1; fill:url(#g_bP10); fill-opacity:1; fill-rule:nonzero; stroke:#050402; stroke-width:1.3; stroke-linecap:round; stroke-linejoin:miter; stroke-miterlimit:4; stroke-dasharray:none; stroke-opacity:1;"/>
</g>

</g>
<g transform="translate(181.35,91.35) scale(1.94)">

<defs>
  <linearGradient id="g_wR11" x1="0" y1="0.05" x2="0" y2="1">
    <stop offset="0" stop-color="#fbfaf6"/>
    <stop offset="1" stop-color="#dfdacb"/>
  </linearGradient></defs>
<ellipse cx="22.5" cy="41.5" rx="13.5" ry="1.4" fill="rgba(0,0,0,0.28)"/>
<g>
<g style="opacity:1; fill:url(#g_wR11); fill-opacity:1; fill-rule:evenodd; stroke:#1f1c18; stroke-width:1.3; stroke-linecap:round;stroke-linejoin:round;stroke-miterlimit:4; stroke-dasharray:none; stroke-opacity:1;" transform="translate(0,0.3)">
    <path
      d="M 9,39 L 36,39 L 36,36 L 9,36 L 9,39 z "
      style="stroke-linecap:butt;" />
    <path
      d="M 12,36 L 12,32 L 33,32 L 33,36 L 12,36 z "
      style="stroke-linecap:butt;" />
    <path
      d="M 11,14 L 11,9 L 15,9 L 15,11 L 20,11 L 20,9 L 25,9 L 25,11 L 30,11 L 30,9 L 34,9 L 34,14"
      style="stroke-linecap:butt;" />
    <path
      d="M 34,14 L 31,17 L 14,17 L 11,14" />
    <path
      d="M 31,17 L 31,29.5 L 14,29.5 L 14,17"
      style="stroke-linecap:butt; stroke-linejoin:miter;" />
    <path
      d="M 31,29.5 L 32.5,32 L 12.5,32 L 14,29.5" />
    <path
      d="M 11,14 L 34,14"
      style="fill:none; stroke:#1f1c18; stroke-linejoin:miter;" />
  </g>
</g>

</g>
</svg>