<svg xmlns="http://www.w3.org/2000/svg" viewBox="0 0 45 45" width="45" height="45">
<defs>
  <linearGradient id="g" x1="0" y1="0.05" x2="0" y2="1">
    <stop offset="0" stop-color="#3d3a35"/>
    <stop offset="1" stop-color="#0e0c0a"/>
  </linearGradient></defs>
<ellipse cx="22.5" cy="41.5" rx="13.5" ry="1.4" fill="rgba(0,0,0,0.28)"/>
<g>
<g style="opacity:1; fill:url(#g); fill-opacity:1; fill-rule:evenodd; stroke:#050402; stroke-width:1.3; stroke-linecap:round;stroke-linejoin:round;stroke-miterlimit:4; stroke-dasharray:none; stroke-opacity:1;" transform="translate(0,0.3)">
    <path
      d="M 9,39 L 36,39 L 36,36 L 9,36 L 9,39 z "
      style="stroke-linecap:butt;" />
    <path
      d="M 12.5,32 L 14,29.5 L 31,29.5 L 32.5,32 L 12.5,32 z "
      style="stroke-linecap:butt;" />
    <path
      d="M 12,36 L 12,32 L 33,32 L 33,36 L 12,36 z "
      style="stroke-linecap:butt;" />
    <path
      d="M 14,29.5 L 14,16.5 L 31,16.5 L 31,29.5 L 14,29.5 z "
      style="stroke-linecap:butt;stroke-linejoin:miter;" />
    <path
      d="M 14,16.5 L 11,14 L 34,14 L 31,16.5 L 14,16.5 z "
      style="stroke-linecap:butt;" />
    <path
      d="M 11,14 L 11,9 L 15,9 L 15,11 L 20,11 L 20,9 L 25,9 L 25,11 L 30,11 L 30,9 L 34,9 L 34,14 L 11,14 z "
      style="stroke-linecap:butt;" />
    <path
      d="M 12,35.5 L 33,35.5 L 33,35.5"
      style="fill:none; stroke:#dfdacb; stroke-width:1; stroke-linejoin:miter;" />
    <path
      d="M 13,31.5 L 32,31.5"
      style="fill:none; stroke:#dfdacb; stroke-width:1; stroke-linejoin:miter;" />
    <path
      d="M 14,29.5 L 31,29.5"
      style="fill:none; stroke:#dfdacb; stroke-width:1; stroke-linejoin:miter;" />
    <path
      d="M 14,16.5 L 31,16.5"
      style="fill:none; stroke:#dfdacb; stroke-width:1; stroke-linejoin:miter;" />
    <path
      d="M 11,14 L 34,14"
      style="fill:none; stroke:#dfdacb; stroke-width:1; stroke-linejoin:miter;" />
  </g>
</g>
</svg>
